<svg width="42" height="42" viewBox="0 0 42 42" version="1.1" xmlns="http://www.w3.org/2000/svg" xmlns:xlink="http://www.w3.org/1999/xlink">
<title>Polygon</title>
<desc>Created using Figma</desc>
<g id="Canvas" transform="matrix(2 0 0 2 -10954 -3576)">
<g id="Polygon">
<mask id="mask0_outline_ins">
<use xlink:href="#path0_fill" fill="white" transform="matrix(0.615829 -0.78788 0.78788 0.615829 5468.11 1801.94)"/>
</mask>
<g mask="url(#mask0_outline_ins)">
<use xlink:href="#path1_stroke_2x" transform="matrix(0.615829 -0.78788 0.78788 0.615829 5468.11 1801.94)" fill="#A4D77C"/>
</g>
</g>
</g>
<defs>
<path id="path0_fill" d="M 14.9315 0.877742C 15.3304 0.415335 16.047 0.415335 16.4459 0.877742L 27.8494 14.0968C 28.4085 14.7448 27.9481 15.75 27.0922 15.75L 4.28522 15.75C 3.42938 15.75 2.969 14.7448 3.52803 14.0968L 14.9315 0.877742Z"/>
<path id="path1_stroke_2x" d="M 16.4459 0.877742L 17.9603 -0.428647L 16.4459 0.877742ZM 14.9315 0.877742L 16.4459 2.18413L 14.9315 0.877742ZM 3.52803 14.0968L 5.04241 15.4032L 3.52803 14.0968ZM 14.9315 2.18413L 26.335 15.4032L 29.3638 12.7904L 17.9603 -0.428647L 14.9315 2.18413ZM 27.0922 13.75L 4.28522 13.75L 4.28522 17.75L 27.0922 17.75L 27.0922 13.75ZM 5.04241 15.4032L 16.4459 2.18413L 13.4172 -0.428647L 2.01365 12.7904L 5.04241 15.4032ZM 17.9603 -0.428647C 16.7636 -1.81587 14.6139 -1.81587 13.4172 -0.428647L 16.4459 2.18413C 16.047 2.64654 15.3304 2.64654 14.9315 2.18413L 17.9603 -0.428647ZM 26.335 15.4032C 25.776 14.7552 26.2364 13.75 27.0922 13.75L 27.0922 17.75C 29.6598 17.75 31.0409 14.7345 29.3638 12.7904L 26.335 15.4032ZM 4.28522 13.75C 5.14106 13.75 5.60144 14.7552 5.04241 15.4032L 2.01365 12.7904C 0.336551 14.7345 1.71769 17.75 4.28522 17.75L 4.28522 13.75Z"/>
</defs>
</svg>
