<svg width="38" height="36" viewBox="0 0 38 36" version="1.1" xmlns="http://www.w3.org/2000/svg" xmlns:xlink="http://www.w3.org/1999/xlink">
<title>Star</title>
<desc>Created using Figma</desc>
<g id="Canvas" transform="matrix(2 0 0 2 -10404 -2968)">
<g id="Star">
<mask id="mask0_outline_ins">
<use xlink:href="#path0_fill" fill="white" transform="translate(5201.11 1484.21)"/>
</mask>
<g mask="url(#mask0_outline_ins)">
<use xlink:href="#path1_stroke_2x" transform="translate(5201.11 1484.21)" fill="#EB7265"/>
</g>
</g>
</g>
<defs>
<path id="path0_fill" d="M 9.55905 0.824885C 9.74742 0.472505 10.2526 0.472505 10.441 0.824885L 12.9654 5.54731C 13.0376 5.68236 13.1677 5.77688 13.3184 5.8038L 18.5898 6.74536C 18.9831 6.81562 19.1392 7.29606 18.8623 7.5841L 15.1511 11.4443C 15.045 11.5547 14.9953 11.7076 15.0163 11.8593L 15.7497 17.1636C 15.8045 17.5594 15.3958 17.8564 15.0363 17.682L 10.2182 15.3453C 10.0804 15.2785 9.9196 15.2785 9.78181 15.3453L 4.96374 17.682C 4.60422 17.8564 4.19554 17.5594 4.25027 17.1636L 4.98373 11.8593C 5.00471 11.7076 4.95502 11.5547 4.84889 11.4443L 1.13769 7.5841C 0.860762 7.29606 1.01687 6.81562 1.41021 6.74536L 6.68159 5.8038C 6.83234 5.77688 6.96243 5.68236 7.03462 5.54731L 9.55905 0.824885Z"/>
<path id="path1_stroke_2x" d="M 10.441 0.824885L 12.2048 -0.117978L 10.441 0.824885ZM 12.9654 5.54731L 11.2016 6.49017L 12.9654 5.54731ZM 18.5898 6.74536L 18.2381 8.7142L 18.5898 6.74536ZM 15.1511 11.4443L 13.7094 10.0582L 15.1511 11.4443ZM 15.7497 17.1636L 13.7686 17.4376L 15.7497 17.1636ZM 10.2182 15.3453L 9.34544 17.1448L 10.2182 15.3453ZM 4.96374 17.682L 5.83649 19.4815L 4.96374 17.682ZM 4.98373 11.8593L 3.00258 11.5854L 4.98373 11.8593ZM 1.13769 7.5841L -0.304076 8.97022L 1.13769 7.5841ZM 6.68159 5.8038L 6.32992 3.83496L 6.68159 5.8038ZM 9.55905 0.824885L 7.79524 -0.117978L 9.55905 0.824885ZM 13.3184 5.8038L 13.6701 3.83496L 13.3184 5.8038ZM 18.8623 7.5841L 17.4206 6.19798L 18.8623 7.5841ZM 15.0163 11.8593L 16.9974 11.5854L 15.0163 11.8593ZM 15.0363 17.682L 14.1635 19.4815L 15.0363 17.682ZM 9.78181 15.3453L 10.6546 17.1448L 9.78181 15.3453ZM 4.25027 17.1636L 2.26912 16.8897L 4.25027 17.1636ZM 4.84889 11.4443L 3.40713 12.8304L 4.84889 11.4443ZM 7.03462 5.54731L 5.27082 4.60445L 7.03462 5.54731ZM 8.67715 1.76775L 11.2016 6.49017L 14.7292 4.60445L 12.2048 -0.117978L 8.67715 1.76775ZM 12.9667 7.77264L 18.2381 8.7142L 18.9415 4.77652L 13.6701 3.83496L 12.9667 7.77264ZM 17.4206 6.19798L 13.7094 10.0582L 16.5929 12.8304L 20.3041 8.97022L 17.4206 6.19798ZM 13.0351 12.1332L 13.7686 17.4376L 17.7309 16.8897L 16.9974 11.5854L 13.0351 12.1332ZM 15.909 15.8825L 11.0909 13.5458L 9.34544 17.1448L 14.1635 19.4815L 15.909 15.8825ZM 8.90906 13.5458L 4.09099 15.8825L 5.83649 19.4815L 10.6546 17.1448L 8.90906 13.5458ZM 6.23141 17.4376L 6.96488 12.1332L 3.00258 11.5854L 2.26912 16.8897L 6.23141 17.4376ZM 6.29065 10.0582L 2.57945 6.19798L -0.304076 8.97022L 3.40713 12.8304L 6.29065 10.0582ZM 1.76188 8.7142L 7.03326 7.77264L 6.32992 3.83496L 1.05854 4.77652L 1.76188 8.7142ZM 8.79843 6.49017L 11.3229 1.76775L 7.79524 -0.117978L 5.27082 4.60445L 8.79843 6.49017ZM 12.2048 -0.117978C 11.2629 -1.87987 8.73708 -1.87987 7.79524 -0.117978L 11.3229 1.76775C 10.7577 2.82488 9.24225 2.82488 8.67715 1.76775L 12.2048 -0.117978ZM 11.2016 6.49017C 11.5625 7.16541 12.213 7.63801 12.9667 7.77264L 13.6701 3.83496C 14.1223 3.91574 14.5126 4.1993 14.7292 4.60445L 11.2016 6.49017ZM 18.2381 8.7142C 17.0581 8.50343 16.5898 7.0621 17.4206 6.19798L 20.3041 8.97022C 21.6887 7.53002 20.9082 5.12781 18.9415 4.77652L 18.2381 8.7142ZM 13.7094 10.0582C 13.1787 10.6101 12.9302 11.3748 13.0351 12.1332L 16.9974 11.5854C 17.0603 12.0404 16.9113 12.4992 16.5929 12.8304L 13.7094 10.0582ZM 13.7686 17.4376C 13.6044 16.2502 14.8305 15.3594 15.909 15.8825L 14.1635 19.4815C 15.9611 20.3533 18.0045 18.8687 17.7309 16.8897L 13.7686 17.4376ZM 11.0909 13.5458C 10.402 13.2117 9.59798 13.2117 8.90906 13.5458L 10.6546 17.1448C 10.2412 17.3453 9.75879 17.3453 9.34544 17.1448L 11.0909 13.5458ZM 4.09099 15.8825C 5.16954 15.3594 6.39561 16.2502 6.23141 17.4376L 2.26912 16.8897C 1.99547 18.8687 4.03891 20.3533 5.83649 19.4815L 4.09099 15.8825ZM 6.96488 12.1332C 7.06976 11.3748 6.8213 10.6101 6.29065 10.0582L 3.40713 12.8304C 3.08874 12.4992 2.93966 12.0404 3.00258 11.5854L 6.96488 12.1332ZM 2.57945 6.19798C 3.41022 7.0621 2.9419 8.50343 1.76188 8.7142L 1.05854 4.77652C -0.908169 5.12781 -1.68869 7.53002 -0.304076 8.97022L 2.57945 6.19798ZM 7.03326 7.77264C 7.78699 7.63801 8.43747 7.16541 8.79843 6.49017L 5.27082 4.60445C 5.48739 4.1993 5.87768 3.91574 6.32992 3.83496L 7.03326 7.77264Z"/>
</defs>
</svg>
