<svg width="58" height="110" viewBox="0 0 58 110" version="1.1" xmlns="http://www.w3.org/2000/svg" xmlns:xlink="http://www.w3.org/1999/xlink">
<title>Text</title>
<desc>Created using Figma</desc>
<g id="Canvas" transform="matrix(2 0 0 2 -10856 -4688)">
<g id="Text">
<use xlink:href="#path0_fill" transform="translate(5428.75 2344.34)" fill="#0C0C0C"/>
</g>
</g>
<defs>
<path id="path0_fill" d="M 22.2896 17.068C 21.1367 16.0026 20.0265 15.2141 18.959 14.7027C 17.8915 14.1487 16.6745 13.8717 15.3081 13.8717C 13.7709 13.8717 12.5966 14.1913 11.7853 14.8306C 10.974 15.4698 10.5684 16.514 10.5684 17.9629C 10.5684 18.9857 10.974 19.8594 11.7853 20.5838C 12.6393 21.2657 13.6855 21.9263 14.9238 22.5655C 16.2048 23.2048 17.5712 23.8653 19.023 24.5472C 20.4749 25.2291 21.8199 26.0601 23.0582 27.0403C 24.3392 28.0204 25.3854 29.2137 26.1967 30.6201C 27.0507 31.9838 27.4777 33.6885 27.4777 35.7341C 27.4777 38.8025 26.6451 41.4447 24.9798 43.6608C 23.3144 45.8342 20.8165 47.2832 17.4858 48.0077L 17.4858 54.6559L 11.2729 54.6559L 11.2729 48.2634C 9.3941 48.0503 7.40852 47.5389 5.3162 46.7292C 3.26658 45.8768 1.49452 44.7688 0 43.4051L 4.09924 37.0765C 5.72186 38.3124 7.25907 39.2499 8.71089 39.8892C 10.2054 40.4858 11.7213 40.7841 13.2585 40.7841C 15.0519 40.7841 16.3543 40.4219 17.1656 39.6974C 18.0196 38.9729 18.4466 37.8649 18.4466 36.3733C 18.4466 35.2653 18.0196 34.3277 17.1656 33.5606C 16.3543 32.7935 15.3081 32.069 14.0271 31.3872C 12.7888 30.6627 11.4437 29.9595 9.9919 29.2776C 8.54009 28.5532 7.17367 27.7008 5.89266 26.7206C 4.65435 25.7405 3.60819 24.5898 2.75418 23.2687C 1.94287 21.9476 1.53722 20.3281 1.53722 18.4104C 1.53722 15.2568 2.39122 12.6571 4.09924 10.6115C 5.84996 8.52333 8.24119 7.18091 11.2729 6.58427L 11.2729 0L 17.4858 0L 17.4858 6.45642C 19.5354 6.75474 21.3289 7.37268 22.8661 8.31025C 24.4033 9.24781 25.7911 10.3772 27.0294 11.6983L 22.2896 17.068Z"/>
</defs>
</svg>
